<?xml version="1.0" encoding="UTF-8"?>
<!DOCTYPE svg PUBLIC "-//W3C//DTD SVG 1.1//EN" "http://www.w3.org/Graphics/SVG/1.1/DTD/svg11.dtd">
<!-- Creator: CorelDRAW -->
<svg xmlns="http://www.w3.org/2000/svg" xml:space="preserve" width="8.1186mm" height="8.1186mm" version="1.1" style="shape-rendering:geometricPrecision; text-rendering:geometricPrecision; image-rendering:optimizeQuality; fill-rule:evenodd; clip-rule:evenodd"
viewBox="0 0 811.86 811.86"
 xmlns:xlink="http://www.w3.org/1999/xlink"
 xmlns:xodm="http://www.corel.com/coreldraw/odm/2003">
 <defs>
  <style type="text/css">
   <![CDATA[
    .fil0 {fill:#5CA2D2}
   ]]>
  </style>
 </defs>
 <g id="Layer_x0020_1">
  <metadata id="CorelCorpID_0Corel-Layer"/>
  <path class="fil0" d="M63.41 781.31c0,-24.61 16.62,-41.23 41.23,-41.23l602.56 0c33.71,0 41.23,23.84 41.23,50.75l-685.02 0 0 -9.52zm748.45 20.72l0 2.96c-0.62,5.81 -4.84,11.21 -12.69,11.21l-786.5 0c-7.67,0 -12.69,-5.02 -12.69,-12.69 0,-16.58 19,-12.68 38.06,-12.68l0 -17.45c0,-28.04 28.85,-56.59 50.74,-57.08l0 -19.03c0,-28.04 28.85,-56.6 50.74,-57.08l0 -450.34c0,-29.29 27.44,-54.62 52.67,-58.33 16.76,-2.46 38.25,2.52 52.93,-2.58 27.94,-9.7 11.34,-49.93 71.31,-95.18 30.32,-22.88 56.75,-29.44 97.42,-29.44 44.02,0 84.82,26.28 109.66,56.84 29.96,36.85 19.63,59.59 43.21,67.78 14.68,5.1 36.17,0.12 52.92,2.58 25.23,3.71 52.67,29.04 52.67,58.33l0 450.34c15,0.33 26.44,11.29 34.52,19.39 17.76,17.8 16.23,34.32 16.23,56.72 15,0.33 26.43,11.3 34.51,19.39 17.37,17.4 16.23,33.33 16.23,55.14l25.37 0c7.85,0 12.08,5.39 12.69,11.2zm-326.66 -112.69c17.24,0 28.21,-0.53 40.05,-12.28 3.02,-2.99 5.59,-7.84 7.52,-11.5 11.08,0 15.48,-1.59 26.96,-1.59l96.73 0c33.71,0 41.23,23.84 41.23,50.74l-234.69 0c4.07,-3.53 21.08,-11.85 22.2,-25.37zm-371.05 15.86c0,-24.61 16.62,-41.23 41.23,-41.23l96.73 0c11.48,0 15.88,1.59 26.95,1.59 10.8,20.4 23.04,23.78 47.57,23.78 1,12 14.2,19.61 21.3,24.69 0.19,0.13 0.62,0.44 0.9,0.68l-234.68 0 0 -9.51zm236.27 -72.94c0,-6.85 -0.84,-12.04 4.37,-16.25 13.82,-11.16 26.71,7.9 34.19,-10.21 1.44,-3.49 2.61,-17.31 16.94,-17.31 14.33,0 15.5,13.82 16.94,17.31 7.28,17.63 18.94,0 33.26,9.56 6.19,4.13 5.3,9.65 5.3,16.9 0,7.19 -11.1,9.67 -11.1,19.02 0,12.47 11.1,6.8 11.1,25.38 0,4.82 -1.53,7.49 -4.39,9.88 -13.77,11.49 -25.31,-7.71 -33.68,9.13 -0.81,1.61 -3.51,19.04 -17.43,19.04 -4.38,0 -9.1,-3.06 -11.62,-5.82 -4.92,-5.38 -2.7,-5.78 -5.32,-12.12 -7.75,-18.76 -21.95,1.8 -34.29,-10.11 -7.98,-7.7 -6.74,-16.44 -0.2,-23.37 18.21,-19.3 -4.07,-20.15 -4.07,-31.03zm103.07 -71.36c4.84,0 17.38,8.17 23.8,-4.74 0.8,-1.62 3.51,-19.04 17.43,-19.04 18.6,0 11.84,22.58 26.28,26.15 3.84,0.95 30.8,-9.95 30.8,13.49 0,14.81 -24.25,18.21 -6.33,34.87 3.26,3.03 1.86,0 4.21,5.31 6.8,15.39 -7.42,23.25 -13.73,23.25 -4.84,0 -17.39,-8.17 -23.81,4.74 -2.74,5.51 -0.6,6.84 -5.06,12.37 -11.52,14.31 -25.66,1.81 -24.29,-7.06 0.17,-1.06 16.95,-31.88 -7.78,-53.78 -2.08,-1.84 -9.89,-6.87 -12.57,-8.03 -5.66,-2.46 -10.87,-2.16 -18.46,-2.16 -4.28,-8.07 -7.72,-8.83 -4.72,-15.62 1.93,-4.37 8.08,-9.75 14.23,-9.75zm-85.63 25.37c-7.59,0 -12.8,-0.3 -18.46,2.16 -2.68,1.16 -10.49,6.19 -12.58,8.03 -2.12,1.88 -7.56,9.21 -8.91,11.7 -4.99,9.14 -5.77,22.43 -2.95,32.11 2.22,7.58 7.05,9.28 1.81,17.39 -6.08,9.41 -14.66,6.96 -20.49,1.29 -5.81,-5.66 -3.2,-5.91 -6.1,-12.92 -1.69,-4.09 -4.59,-7.04 -9.34,-8.21 -3.84,-0.95 -30.81,9.94 -30.81,-13.49 0,-15.59 24.06,-16.79 6.48,-35.02 -15.61,-16.18 1.56,-28.41 9.38,-28.41 6.12,0 7.99,3.45 13.75,2.62 15.93,-2.27 8.39,-26.4 27.48,-26.4 13.62,0 16.25,16.28 16.94,17.94 8.39,20.3 26.74,-5.96 37.96,14.52 2.24,4.08 2.1,5.59 0.68,8.72l-4.84 7.97zm134.79 -74.53c-21.38,0 -34.16,1.43 -45.99,23.79 -27.57,0 -29.03,11.4 -38.06,17.44 0,-31.8 17.22,-60.84 46.43,-72.5 15.6,-6.23 24.82,-6.78 42.37,-6.78 0,19.83 -0.5,19.78 -4.75,38.05zm-198.22 -30.12l0 -7.93c17.46,0 24.9,0.4 40.29,5.7 29.71,10.22 48.51,41.67 48.51,73.58 -4.08,-2.73 -3.39,-2.93 -6.47,-6.21 -0.23,-0.23 -0.54,-0.59 -0.77,-0.82 -8.26,-8.21 -17.71,-10.41 -30.81,-10.41 -11.84,-22.36 -24.61,-23.79 -45.99,-23.79 -2.28,-9.8 -4.76,-17.8 -4.76,-30.12zm-25.37 -20.62c0,18.98 -1.63,36.81 3.87,54.86 3.76,12.34 1.11,10.26 -3.87,19.67 -14.58,0 -19.65,0.68 -31.1,10.12 -24.76,20.42 -7.76,53.55 -7.72,53.85 0.91,6.18 -5.58,4.34 -5.58,28 0,5.47 1.18,6.14 1.59,11.1l-20.61 0 0 -431.31c32.94,0 50.66,1.86 79.93,-18.37 16.04,-11.09 24.7,-21.22 33.71,-39.24 2.35,-4.7 3.74,-6.96 5.51,-11.94 1.64,-4.64 2.69,-8.98 5.03,-13.98 26.54,-56.66 104.54,-57.39 131.67,-1.07 10.25,21.26 10.56,42.05 43.84,65.58 29.4,20.78 47.48,19.02 80.87,19.02l0 431.31 -20.61 0c0.72,-8.66 1.58,-4.33 1.58,-19.03 0,-10.02 -6.25,-15.49 -5.57,-20.07 0.14,-0.98 12.19,-21.79 1.13,-42.09 -9.66,-17.71 -22.22,-21.88 -39.96,-21.88 -12.65,-23.91 0,-8.82 0,-45.99 0,-46.68 5.24,-41.22 -44.4,-41.22 -34.57,0 -76.29,31.08 -80.87,50.74l-3.17 0c-2.44,-10.47 -21.92,-28.3 -30.81,-34.2 -28.88,-19.19 -48.87,-16.54 -81.77,-16.54 -7.67,0 -12.69,5.01 -12.69,12.68zm-88.8 -266.39l0 443.99 -25.37 0 0 -440.82c0,-41.23 33.98,-41.24 60.26,-41.23 20.99,0.01 28.68,-0.35 41.5,-9.24 31.75,-22.03 19.9,-79.14 94.39,-108.58 6.76,-2.68 12.42,-4.27 19.61,-5.77 62.84,-13.08 122.94,23.13 142.41,82.56 2.46,7.5 4.14,11.68 8.11,17.26 29.91,42.09 68.98,11.98 98.34,30.1 9.9,6.11 17.43,18.91 17.43,34.9l0 440.82 -25.37 0 0 -443.99c0,-32.63 -78.75,16.81 -116.29,-58.13 -5.23,-10.44 -7.17,-19.89 -12.66,-30.16 -9.66,-18.08 -26.55,-33.42 -44.91,-42.3 -46.12,-22.3 -103.41,-2.93 -127.95,41.26 -13.22,23.82 -6.31,30.43 -31.55,55.66 -7.31,7.31 -16.87,13.02 -27.95,16.45 -37.58,11.63 -70,-5.92 -70,17.22z"/>
  <path class="fil0" d="M367.86 219.98c0,-12.9 8.76,-28.84 22.79,-34.3 42.12,-16.37 68.77,34.04 41.89,60.92 -24.26,24.25 -64.68,4.91 -64.68,-26.62zm-25.37 -4.76l0 9.51c0,29.26 29.42,58.67 58.67,58.67l9.52 0c29.25,0 58.67,-29.41 58.67,-58.67l0 -9.51c0,-29.25 -29.42,-58.67 -58.67,-58.67l-9.52 0c-29.25,0 -58.67,29.42 -58.67,58.67z"/>
  <path class="fil0" d="M266.38 334.15c0,7.67 5.01,12.68 12.68,12.68l253.71 0c17.02,0 17.02,-25.37 0,-25.37l-253.71 0c-7.67,0 -12.68,5.02 -12.68,12.69z"/>
  <path class="fil0" d="M266.38 397.57c0,7.67 5.01,12.69 12.68,12.69l253.71 0c17.02,0 17.02,-25.37 0,-25.37l-253.71 0c-7.67,0 -12.68,5.01 -12.68,12.68z"/>
 </g>
</svg>
