<?xml version="1.0" encoding="UTF-8"?>
<!DOCTYPE svg PUBLIC "-//W3C//DTD SVG 1.1//EN" "http://www.w3.org/Graphics/SVG/1.1/DTD/svg11.dtd">
<!-- Creator: CorelDRAW -->
<svg xmlns="http://www.w3.org/2000/svg" xml:space="preserve" width="92.0314mm" height="40.4526mm" version="1.1" style="shape-rendering:geometricPrecision; text-rendering:geometricPrecision; image-rendering:optimizeQuality; fill-rule:evenodd; clip-rule:evenodd"
viewBox="0 0 9203.14 4045.26"
 xmlns:xlink="http://www.w3.org/1999/xlink"
 xmlns:xodm="http://www.corel.com/coreldraw/odm/2003">
 <defs>
  <style type="text/css">
   <![CDATA[
    .fil1 {fill:#1076BC;fill-rule:nonzero}
    .fil0 {fill:white;fill-rule:nonzero}
   ]]>
  </style>
 </defs>
 <g id="Layer_x0020_1">
  <metadata id="CorelCorpID_0Corel-Layer"/>
  <g id="_2591574910144">
   <polygon class="fil0" points="4324.22,1497.69 4782.89,1499.65 4880.49,1166.54 4421.74,1164.56 4470.47,998.12 4955.44,1000.2 5053.45,665.36 4209.59,661.68 3803.08,2049.99 4673.27,2053.8 4771.27,1718.85 4260.08,1716.68 "/>
   <path class="fil0" d="M5320.09 1268.51c-26.57,90.72 -107.42,366.86 -198.54,436.08 -19.37,14.25 -55.77,31.79 -83.07,36.46l-104.25 17.91 -43.23 299.54 87.24 -9.94 1.56 0c110.41,0 216.58,-39.56 259.21,-62.43 245.78,-137.57 352.26,-432.99 439.51,-731.32l74.74 -245.34 183.89 0 -308.37 1050.97 360.74 0.25 406.48 -1388.94 -899.89 -4.19 -176.02 600.95z"/>
   <path class="fil0" d="M6925.73 1331.89c-8.61,9.51 -17.08,18.82 -25.42,28.04 8.16,-27.17 16.53,-55.27 25.05,-84.52l176 -601.29 -350.15 -1.43 -406.49 1388.29 323.17 1.37 586.83 -634.82c9.22,-10.17 18.47,-20.43 27.75,-30.64 -5.83,19.62 -11.77,39.82 -17.85,60.73l-177.65 606.53 350.27 1.55 406.43 -1388.33 -312.69 -1.38 -605.25 655.9z"/>
   <path class="fil0" d="M8816.84 681.55l-175.98 600.95c-46.15,16.34 -97.49,25.63 -137.27,25.97 -53.09,-0.22 -87.91,-11.98 -103.44,-34.92 -19.33,-28.53 -10.66,-78.05 0.01,-114.63l140.13 -478.54 -358.97 -1.6 -146.77 501.39c-84.27,287.55 34.34,459.95 317.23,461.22 63.82,-0.18 127.21,-7.76 190.95,-23.72l-132.39 452.23 360.78 1.48 406.47 -1388.31 -360.75 -1.52z"/>
   <path class="fil0" d="M1985.54 1840.57l-219.5 571.44c-112.39,295.83 -213.48,521.6 -303.19,677.4 -53.2,92.65 -116.46,169.26 -189.82,229.77 170.54,63.93 319.27,103.45 446.17,118.63 341.6,40.82 612.41,-33.85 812.29,-223.97 199.94,-190.16 315.42,-415.22 346.47,-675.06 15.42,-128.96 -4.04,-243.74 -58.24,-344.38 -54.29,-100.57 -132.25,-175.84 -234.11,-225.68 -101.8,-49.78 -301.85,-92.5 -600.07,-128.15zm-276.33 -1103.62l52.27 -139.31c224.58,11.01 469.53,0.64 734.88,-31.1 -92.25,193.21 -161.35,349.46 -207.19,468.84l-235.91 634.9c345.14,41.19 615.33,-14.13 810.48,-166.22 195.18,-152.08 307.02,-347.32 335.53,-585.68 19.8,-166.01 -27.14,-307.39 -140.93,-424.04 -113.77,-116.6 -295.6,-189.89 -545.51,-219.74 -353.37,-42.19 -700.07,1.61 -1040.3,131.41 -340.23,129.85 -615.82,319.4 -826.76,568.7 -210.96,249.38 -332.61,509.88 -365.12,781.52 -8.85,74.3 -6.83,144.36 6.06,210.34 12.93,65.9 35.74,127.61 68.48,185.08 19.72,34.07 66.25,83.18 139.8,147.47 82.28,73.37 132.35,126.4 150.23,159.23 17.88,32.82 24.37,69.84 19.44,110.81 -4.88,41.07 -24.29,74.93 -58.17,101.6 -33.89,26.69 -72.26,37.45 -115.17,32.32 -111.31,-13.27 -214.39,-107.84 -309.18,-283.65 -94.83,-175.87 -128.01,-382.98 -99.52,-621.36 39.22,-328.32 175.28,-634.62 408.28,-918.94 232.92,-284.35 540.08,-497.86 921.45,-640.63 381.33,-142.77 787.79,-188.37 1219.2,-136.82 351.34,41.98 610,143.2 775.98,303.73 165.97,160.55 237.05,340.4 213.22,539.66 -22.65,189.5 -104.74,354.55 -246.24,495.15 -141.56,140.66 -342.23,238.03 -602.14,292.14 168.46,47.86 298.6,110.4 390.36,187.64 91.75,77.31 158.47,168.85 200.33,274.76 41.8,105.93 55.04,223.23 39.62,351.98 -25.2,210.77 -110.98,402.8 -257.41,576.3 -146.46,173.42 -347.66,307.71 -603.52,402.82 -255.88,95.1 -514.64,126.96 -776.24,95.68 -76.09,-9.08 -238.19,-36.39 -486.14,-81.8 -118.44,-20.11 -243.04,-37.95 -373.78,-53.58 -199.1,-23.75 -377.67,-29.31 -535.61,-16.46l63.19 -155.8c206.34,12.82 358.13,-18.88 455.35,-95.03 97.19,-76.21 201.53,-257.58 312.98,-544.14l636.68 -1650.07c26.27,-70.66 41.61,-124.65 46.11,-162 3.53,-29.48 -5.57,-57.02 -27.3,-82.54 -21.7,-25.5 -51.08,-40.51 -88.18,-44.98 -15.64,-1.86 -35.48,-1.29 -59.6,1.81z"/>
   <path class="fil0" d="M1410.81 3289.02c118.54,38.9 224.9,64.08 317.17,75.12 321.4,38.45 567.61,-28.31 752.35,-204.12 186.17,-177.05 295.11,-389.03 323.92,-630.07 13.65,-114.48 -2.64,-212.7 -49.88,-300.34 -47.18,-87.43 -113.09,-150.96 -201.4,-194.22 -87.46,-42.77 -261.91,-81.08 -518.97,-114.01l-198.7 517.24c-113.09,297.68 -216.82,529.23 -308.13,687.83 -34.49,60.07 -73.43,114.44 -116.36,162.57zm481.85 233.74c-58.65,0 -119.39,-3.73 -182.24,-11.22 -132.27,-15.83 -288.19,-57.17 -463.47,-122.88l-120.17 -45.05 99.02 -81.68c66.13,-54.54 124.21,-125.03 172.67,-209.47 87.47,-151.88 187.75,-376.24 298.21,-666.82l240.3 -625.62 57.36 6.88c309.41,36.95 513.51,81.14 623.92,135.15 115.48,56.54 205.26,143.05 266.74,257.09 61.36,113.89 83.85,244.56 66.64,388.43 -33,276.29 -157.16,518.53 -368.99,720.03 -178.42,169.67 -409.92,255.16 -689.99,255.16zm403.12 -3367.16c-299.2,0 -586.46,50.96 -857.41,152.36 -367.17,137.49 -666.65,345.5 -890.07,618.23 -222.8,271.82 -354.63,568.13 -392.01,880.66 -26.49,221.83 4.19,416.05 91.16,577.33 82.28,152.51 167.25,235.03 252.64,245.2 23.51,2.77 42.08,-2.42 60.49,-16.93 18.49,-14.55 27.82,-30.58 30.41,-52.08 3.05,-25.6 -0.49,-47.38 -10.96,-66.58 -6.16,-11.3 -31.65,-47.68 -134.4,-139.26 -81.06,-70.83 -130.39,-123.65 -154.69,-165.77 -36.75,-64.43 -62.61,-134.27 -77.07,-207.91 -14.28,-73.35 -16.62,-151.83 -6.89,-233.42 34.07,-285.09 162.62,-561.18 382.13,-820.6 218.08,-257.86 506.44,-456.4 856.98,-590.17 349.96,-133.52 711.86,-179.22 1075.56,-135.76 265.97,31.78 464.41,113.04 589.82,241.59 129.67,132.96 184,296.02 161.49,484.68 -30.83,257.62 -153.13,471.41 -363.59,635.41 -50.14,39.06 -104.84,72.28 -164.02,99.63l11.83 -2.49c244.44,-50.93 434.52,-142.49 565,-272.16 130.56,-129.65 204.06,-277.27 224.86,-451.29 21.11,-176.58 -41.4,-332.73 -191.08,-477.53 -153.29,-148.19 -399.97,-243.56 -733.21,-283.36 -110.36,-13.21 -219.48,-19.78 -326.97,-19.78zm-1709.6 3233.57c102.92,1.7 212.69,9.48 328.24,23.28 131.5,15.73 258.49,33.92 377.34,54.11 246.9,45.19 408.93,72.5 482.56,81.31 248.55,29.68 498.07,-1.11 741.55,-91.6 242.59,-90.18 435.26,-218.4 572.67,-381.15 136.23,-161.39 217.14,-342.11 240.45,-537.21 13.87,-115.74 2.11,-222.02 -34.95,-315.91 -37.09,-93.84 -97.35,-176.39 -179.13,-245.22 -83.24,-70.09 -205.29,-128.29 -362.85,-172.99l-240.42 -68.24c-138.8,26.14 -294.8,29.01 -467.16,8.42l-93.62 -11.18 268.73 -723.26c36.66,-95.42 88.03,-214.34 153.34,-355.06 -190.75,18.15 -372.01,24.82 -541.02,20.14 31.95,12.17 59.58,31.57 81.6,57.38 35.08,41.22 50.44,89.42 44.45,139.46 -5.21,43.78 -21.67,102.34 -50.2,179.12l-636.98 1650.88c-117.58,302.2 -227.6,490.45 -336.49,575.85 -85.05,66.6 -199.77,103.63 -348.11,111.87zm1371.78 318.1c-67,0 -134.14,-4 -201.24,-12.05 -77.75,-9.28 -238.28,-36.2 -490.73,-82.48 -115.54,-19.6 -240.06,-37.45 -369.23,-52.89 -193.37,-23.08 -368.54,-28.53 -520.75,-16.19l-120.04 9.78 128.45 -316.93 53.33 3.32c186.76,11.73 322.98,-15.13 404.99,-79.39 59.22,-46.39 157.52,-173.01 289.61,-512.59l636.59 -1649.91c29.68,-79.73 39.06,-122.44 41.64,-144.11 0.52,-4.2 1.42,-12.03 -10.11,-25.61 -6.38,-7.53 -16.8,-16.56 -40.44,-19.39 -5.37,-0.61 -17.84,-1.3 -41.5,1.73l-122.04 15.51 114.5 -305.18 54.14 2.66c219.31,10.77 462.36,0.39 722.41,-30.69l133.95 -16 -58.17 121.68c-90.98,190.55 -159.94,346.47 -204.86,463.46l-201.92 543.47c278.76,18.7 501.09,-34.89 661.56,-159.98 180.62,-140.72 281.19,-316.03 307.44,-535.93 17.21,-143.89 -22.17,-262.78 -120.34,-363.43 -101.13,-103.64 -269.77,-170.21 -501.18,-197.86 -339.53,-40.56 -677.73,2.24 -1005.05,127.1 -326.79,124.72 -594.81,308.85 -796.52,547.28 -200.39,236.88 -317.52,486.66 -348.09,742.4 -7.9,66.16 -6.14,129.21 5.18,187.28 11.37,57.78 31.57,112.49 60.12,162.5 8.53,14.79 36.26,51.59 124.15,128.4 119.87,106.83 152.48,153.63 166.62,179.65 25.3,46.54 34.71,98.72 27.93,155.1 -7.21,60.25 -36.94,112.54 -85.96,151.09 -49.06,38.63 -107.93,55.11 -169.92,47.69 -138.03,-16.47 -257.68,-121.82 -365.66,-322.12 -101.81,-188.72 -138.09,-412.59 -107.88,-665.41 40.73,-341.05 183.58,-663.07 424.53,-957.15 240.19,-293.22 560.81,-516.35 952.87,-663.11 390.77,-146.29 812.74,-193.64 1254.02,-140.98 366.19,43.69 641.64,152.77 818.79,324.08 182.75,176.76 261.9,379.22 235.31,601.81 -24.59,205.6 -114.58,386.95 -267.67,539.01 -106.38,105.7 -244.51,189.08 -412.17,249.03 76.86,35.68 142.35,76.22 195.93,121.3 100.72,84.88 175.27,187.24 221.55,304.24 46.19,117.09 61.08,247.62 44.3,388.07 -26.81,224.37 -119.14,431.39 -274.41,615.33 -154.1,182.54 -367.57,325.37 -634.39,424.54 -200.31,74.46 -404.6,111.87 -609.64,111.87z"/>
   <polygon class="fil0" points="4184.92,2729.07 4156.77,2807.12 3860.43,2806.51 3628.73,3448.98 3533.53,3448.85 3793.45,2728.29 "/>
   <path class="fil0" d="M3586.35 3411.81l16.28 0 231.75 -642.47 296.34 0.58 1.39 -3.83 -312.6 -0.59 -233.16 646.31zm68.44 74.35l-174.04 -0.35 286.67 -794.66 470.31 0.89 -54.91 152.22 -296.34 -0.58 -231.69 642.48z"/>
   <path class="fil0" d="M4373.54 3085.61c18.84,5.44 44.3,7.63 76.02,7.72 114.8,0.2 204.47,-54.18 240.29,-153.62 34.31,-95.12 -17.95,-141.19 -122.95,-141.43 -41.53,-0.07 -74.37,3.04 -92.33,7.29l-101.03 280.04zm30.14 -347.56c48.64,-7.38 111.12,-13.67 187.67,-13.54 94.01,0.15 155.2,21.72 185.04,60.31 28.11,34.24 33.27,86.63 10.15,150.86 -23.52,65.2 -61.72,116.47 -112.37,153.82 -69.19,52.28 -160.84,78.83 -253.77,78.65 -28.45,-0.07 -54.3,-1.19 -74.22,-6.59l-104.14 288.63 -95.08 -0.17 256.72 -711.97z"/>
   <path class="fil0" d="M4423.87 3055.54c7.97,0.43 18.46,0.65 26.35,0.67 100.56,0 175.19,-47.06 204.76,-129.05 7.22,-20.19 13.44,-47.77 1.59,-64.65 -12.02,-17.15 -44.74,-27.03 -89.74,-27.13 -26.69,0.15 -49.27,1.38 -64.76,3.2l-78.2 216.96zm160.64 -293.93c63.22,3.11 107.86,22.68 132.83,58.28 16.59,23.75 31.39,65.96 7.38,132.42 -14.86,41.33 -38.31,76.48 -68.62,104.34 43.55,-33.42 75.59,-78.26 95.55,-133.6 17.72,-49.23 16.32,-90 -3.95,-114.72 -23.77,-30.7 -77.61,-46.58 -156.42,-46.72 -2.28,0 -4.53,0 -6.77,0zm-384.76 651.4l16.19 0 106.9 -296.27 33.07 9.01c16.73,4.57 42.05,5.25 64.57,5.29 8.47,-0.18 16.7,-0.18 24.97,-0.65 -35.52,-0.29 -61.65,-3.17 -82.21,-9.14l-38.03 -10.97 121.25 -336.21 19.6 -4.59c6.15,-1.49 13.36,-2.77 21.45,-3.83 -19,1.5 -37.8,3.52 -56.48,6.01l-231.28 641.35zm68.35 74.35l-173.96 -0.34 282.19 -782.33 21.8 -3.32c61.87,-9.4 127.17,-13.12 193.32,-13.98 103.96,0.17 176.09,25.33 214.31,74.71 36.84,44.9 42.62,111.32 15.7,186.11 -25.7,71.23 -67.8,128.82 -125.27,171.15 -73.51,55.48 -172.65,85.89 -275.9,85.89 -16.55,-0.03 -33.54,-0.41 -49.75,-1.98l-102.44 284.09z"/>
   <path class="fil0" d="M5245.47 3152.68l2.56 -207.54c0.63,-47.04 5.12,-89.9 9.21,-131.57l-2.16 -0.04c-26.36,42.78 -54.23,86.56 -84.29,130.35l-147.27 208.31 221.95 0.49zm-267.87 72.16l-158.23 226.54 -98.47 -0.19 510.24 -720.03 114.85 0.2 -8.46 721.06 -101.64 -0.24 3.04 -226.79 -261.33 -0.55z"/>
   <path class="fil0" d="M5095.09 3115.24l113.76 0.25 2 -164.47c-3.12,4.69 -6.27,9.29 -9.38,13.83l-106.38 150.39zm-302.49 298.96l7.44 0.02 157.22 -225.07 -5.21 0 -159.45 225.05zm480.92 0.95l27.39 0.08 7.51 -646.81 -58.07 -0.16 -5.69 7.99 51.33 0.86 -2.34 46.04c-3.93,38.95 -7.89,79.23 -8.5,122.49l-3.04 244.21 -5.61 0 -2.98 225.3zm100.71 74.45l-175.98 -0.39 3.07 -226.75 -204.43 -0.46 -158.22 226.51 -189.45 -0.36 562.75 -794.19 171.54 0.42 -9.28 795.22z"/>
   <polygon class="fil0" points="5940.73,2732.54 5831.97,3033.99 6188.44,3034.72 6297.17,2733.28 6393.37,2733.42 6133.53,3453.94 6037.3,3453.8 6159.17,3115.94 5802.68,3115.26 5680.83,3453.06 5585.75,3452.87 5845.6,2732.36 "/>
   <path class="fil0" d="M6090.08 3416.77l17.41 0.02 233.08 -646.32 -17.33 -0.04 -108.73 301.45 -435.34 -0.91 108.78 -301.42 -16.33 0 -233.08 646.31 16.24 0.06 121.89 -337.84 435.3 0.87 -121.89 337.82zm69.52 74.35l-175.11 -0.3 121.85 -337.86 -277.59 -0.57 -121.86 337.82 -173.93 -0.33 286.55 -794.68 174.01 0.32 -108.73 301.46 277.61 0.55 108.73 -301.45 175.06 0.34 -286.59 794.7z"/>
   <polygon class="fil0" points="6793.51,2734.24 6533.64,3454.78 6438.54,3454.59 6698.38,2734.06 "/>
   <path class="fil0" d="M6491.33 3417.59l16.21 0 233.23 -646.35 -16.35 0 -233.09 646.35zm68.36 74.31l-173.96 -0.31 286.6 -794.67 173.99 0.34 -286.63 794.64z"/>
   <polygon class="fil0" points="7211.05,2814.22 6986.92,2813.73 7015.45,2734.65 7561.13,2735.77 7532.53,2814.85 7307.27,2814.41 7075.9,3455.84 6979.76,3455.66 "/>
   <path class="fil0" d="M7032.53 3418.65l17.34 0.04 231.33 -641.43 225.3 0.45 1.78 -4.95 -466.81 -0.93 -1.75 4.94 224.13 0.43 -231.32 641.45zm69.44 74.36l-175.06 -0.33 231.34 -641.45 -224.14 -0.48 55.32 -153.25 624.46 1.25 -55.32 153.24 -225.27 -0.4 -231.33 641.42z"/>
   <path class="fil0" d="M7853.97 2736.37l35.89 307.1c3.19,42.83 5.66,84.54 7.74,127.33l2.13 0.02c26.61,-37.44 55.88,-79.13 92.96,-130.37l224.35 -303.38 100.58 0.19 -287.6 369.59c-75.09,96.13 -160.8,206.13 -236.49,273.42 -69.28,58.71 -133.62,88.49 -199.24,88.38 -24.02,-0.07 -40.78,-2.25 -51.27,-6.49l37.19 -75.93c6.92,2.16 17.45,3.25 33.87,3.27 76.89,-0.93 147.59,-72.43 189.02,-123.68 13.47,-16.03 15.13,-26.72 12.53,-43.85l-69.86 -485.83 108.2 0.23z"/>
   <path class="fil0" d="M8235.75 2774.22l-117.24 158.54 123.33 -158.54 -6.09 0zm-447.16 -0.86l63.79 443.31c4.36,29.04 -1.7,50.21 -20.9,73.04 -0.94,1.19 -1.88,2.36 -2.87,3.52 24.22,-26.16 49.01,-55.13 73.72,-85.22l-37.99 -0.66 -3.8 -34.78c-2.07,-42.47 -4.51,-83.85 -7.66,-126.33l-31.9 -272.82 -32.39 -0.06zm-186.69 653.02l-2.52 5.12c19.85,-0.51 39.79,-4.29 60.24,-11.57 -14.71,4.12 -29.72,6.48 -45.1,6.67 -4.53,0 -8.75,-0.08 -12.62,-0.22zm-7.24 79.4l-0.44 0c-29.07,-0.09 -49.72,-2.99 -65.07,-9.21l-37.02 -14.93 68.79 -140.38 30.48 9.61c0.48,0.11 5.37,1.48 22.75,1.52 46.2,-0.58 103.24,-39.56 160.1,-109.94 5.9,-7.01 5.9,-7.01 4.68,-14.97l-75.98 -528.51 184.11 0.37 39.65 339.85c0.68,9.02 1.36,17.95 1.97,26.82 10.62,-14.89 21.86,-30.58 33.99,-47.32l235.65 -318.76 195.1 0.4 -337.29 433.39c-75.36,96.42 -160.8,205.72 -237.95,274.27 -77.84,65.96 -150.79,97.79 -223.52,97.79z"/>
   <polygon class="fil1" points="9200.88,4052.43 -2.27,4052.43 -2.27,3829.78 9200.88,3829.78 "/>
  </g>
 </g>
</svg>
