<?xml version="1.0" encoding="UTF-8"?>
<!DOCTYPE svg PUBLIC "-//W3C//DTD SVG 1.1//EN" "http://www.w3.org/Graphics/SVG/1.1/DTD/svg11.dtd">
<!-- Creator: CorelDRAW -->
<svg xmlns="http://www.w3.org/2000/svg" xml:space="preserve" width="7.1612mm" height="6.8396mm" version="1.1" style="shape-rendering:geometricPrecision; text-rendering:geometricPrecision; image-rendering:optimizeQuality; fill-rule:evenodd; clip-rule:evenodd"
viewBox="0 0 716.12 683.96"
 xmlns:xlink="http://www.w3.org/1999/xlink"
 xmlns:xodm="http://www.corel.com/coreldraw/odm/2003">
 <defs>
  <style type="text/css">
   <![CDATA[
    .fil0 {fill:#5CA2D2}
   ]]>
  </style>
 </defs>
 <g id="Layer_x0020_1">
  <metadata id="CorelCorpID_0Corel-Layer"/>
  <path class="fil0" d="M85.26 608.94l0 -208.99 36.53 0 0 65.76c0,15.03 13.62,29.23 32.15,29.23l54.08 0c18.78,0 32.15,-13.37 32.15,-32.15l0 -62.84 222.14 0 0 65.76c0,8.66 5.08,16.47 9.83,20.87 5.62,5.19 12.03,8.36 22.32,8.36l54.08 0c18.53,0 32.15,-14.2 32.15,-29.23l0 -65.76 36.54 0 0 208.99c0,36.11 -25.76,52.61 -59.92,52.61l-412.13 0c-34.01,0 -59.92,-16.33 -59.92,-52.61zm406.28 -147.61l0 -61.38 59.92 0 0 61.38c0,3.37 -1.02,4.38 -4.38,4.38l-51.15 0c-3.37,0 -4.39,-1.01 -4.39,-4.38zm-340.52 0l0 -61.38 59.92 0 0 61.38c0,3.37 -1.02,4.38 -4.38,4.38l-51.15 0c-3.37,0 -4.39,-1.01 -4.39,-4.38zm486.67 -90.61l-572.89 0c-21.85,0 -22.65,-33.62 -2.93,-33.62l580.2 0c7.8,0 19.8,16.06 7.75,28.21 -2.49,2.51 -7.63,5.41 -12.13,5.41zm-99.38 -64.31l-32.15 0 26.31 -52.6 24.85 11.67c-0.62,7.26 -15.19,33.71 -19.01,40.93zm-239.68 -176.83c0,-14.66 1.45,-26.39 7.76,-39.01 3,-5.99 12.29,-19.16 17.08,-22.37 0,48.38 -4.85,44.55 19.64,63.66 4.1,3.2 5.93,5.09 9.58,7.96 27.93,21.9 37.84,10.74 66.81,-13.59 16.87,-14.17 12.12,-22.49 12.12,-58.03 10.79,7.22 24.85,32.86 24.85,51.15 0,83.58 -55.54,52.03 -55.54,122.76l0 64.3 -46.77 0 0 -73.07c0,-13 -3.45,-22.39 -9.14,-30.31 -6.8,-9.49 -12.01,-11.38 -20.74,-18.72 -12.16,-10.22 -25.65,-32.95 -25.65,-54.73zm-111.07 -2.92c-23.22,0 -40.92,21.5 -40.92,45.3 0,11.01 16.96,52.93 21.72,67.42l17.74 49.5c2.2,5.52 4.4,11.34 5.84,17.53l-39.46 0c-7.99,-16.66 -27.19,-81.77 -36.78,-102.05 -7.65,-16.17 -20.99,-25.11 -39.34,-30.81 -24.25,-7.54 -37.65,1.48 -53.95,10.1 0,-23.8 4.27,-33.99 16.66,-50.57 3.74,-4.99 7.19,-7.56 12.14,-11.24 10.1,-7.52 16.66,-11.25 29.48,-15.83 9.3,-3.32 27.5,-11.51 36.72,-11.51 5.73,0 30.08,17.49 52.99,-8.39 3.62,-4.1 6.6,-11.38 9.55,-13.83 2.97,-2.45 12.36,-5.08 16.38,-7.01l20.46 57c-4.72,1.1 -7.93,3.23 -12.94,4.7 -7.2,2.11 -8.07,-0.31 -16.29,-0.31zm450.13 42.38c-15.9,-7.63 -30.16,-1.03 -38.51,15.56 -6.79,13.48 -24.63,40.51 1.97,54.59 -0.74,3.17 -3.06,8.94 -4.38,11.69 -11.03,-0.92 -61.29,-31.99 -74.54,-35.08 0.59,-7.04 2.89,-6.73 4.39,-13.15 25.35,12.17 37.23,-11.25 44.46,-28.61 3.51,-8.44 8.27,-13.81 5.37,-24.04 -1.23,-4.34 -2.83,-7.32 -5.32,-10.86 -4.1,-5.83 -4.76,-3.71 -7.98,-8.1 1.91,-8.2 16.01,-33.48 20.46,-42.38 19.81,-39.61 23.47,-65.92 65.28,-44.82 45.51,22.96 34.72,31.89 10.72,79.89l-21.92 45.31zm-105.23 -40.92c0,11.65 2.53,24.54 14.62,27.76l-9.28 18.75c-16.04,-3.6 -24.52,-2.52 -34.18,9.41 -4.44,5.47 -16.46,27.66 -16.46,39.07 0,9.97 10.9,14.19 19,16.08l-32.7 66.95 -41.84 0.27 0 -78.91c0,-16.06 28.32,-13.33 48.69,-65.31 17.04,-43.51 -1.39,-96.6 -36.12,-122.64 -4.01,-3.01 -13.23,-9.29 -17.24,-10.63 -7.94,-2.66 -15.91,-0.03 -20.46,5.37 -7.79,9.24 -5.61,34.56 -5.56,51.45 0.05,15.15 2.73,15.55 -6.66,22.56 -21.43,16.02 -11.72,17.1 -31.8,1.28 -12.98,-10.22 -8.31,-9.31 -8.31,-38.46 0,-11.79 1.13,-25.91 -2.92,-33.61 -3.89,-7.39 -14.19,-12.37 -24.06,-8.06 -13.28,5.8 -31.25,22.91 -39.01,34.14 -30.81,44.6 -23.83,107.16 17.41,143.8 6.13,5.45 17.89,10.2 17.89,20.11l0 78.91 -96.45 0c-4.85,0 -6.24,-8.76 -8.16,-13.76 -6.08,-15.86 -41.53,-113.17 -41.53,-120.69 0,-22.89 17.97,-13.15 21.92,-13.15 4.53,0 27.01,-8.27 30.91,-10.01 30.4,-13.51 11.67,-41.64 2.16,-69.83 -2.56,-7.61 -5.44,-15.44 -8.2,-22.49 -7.13,-18.22 -18.35,-24.97 -37.87,-18.82 -43.86,13.81 -30.52,30.43 -44.55,32.91 -4.52,0.8 -7.31,-2.21 -11.28,-3.68 -17.27,-6.4 -32.5,1.3 -48.27,6.97 -16.86,6.06 -28.73,10.72 -42.79,20.05 -23.9,15.87 -46.18,47.56 -46.18,78.05 0,18.48 -0.38,49.13 22.48,52.12 23.58,3.08 15.05,-22.89 46.21,-22.89 9.94,0 21.09,5.47 26.32,14.6l21.73 60.12c2.35,6.51 9.93,24.73 10.41,30.5 -20.06,0 -55.98,-1.79 -70.39,2.69 -27.27,8.48 -44.59,45.1 -20.47,75.03 4.57,5.68 16.9,14.14 26.56,14.36l0 214.83c0,19.52 7.75,33.62 17.53,48.23 -7.88,0 -56.82,-1.07 -62.15,0.68 -13.7,4.51 -13.34,28.55 8.08,28.55l663.5 0c20.63,0 21.96,-22.6 9.14,-28.13 -5.56,-2.4 -54.9,-1.1 -63.21,-1.1 8.34,-12.46 17.54,-27.56 17.54,-48.23l0 -214.83c10.2,-0.23 21.71,-8.37 26.56,-14.37 25.82,-31.97 3.52,-69.52 -22.79,-75.64 -17.53,-4.07 -56.65,-2.07 -78.31,-2.07 2.14,-9.16 9.56,-17.14 11.69,-26.3 10.23,0.85 7.31,5.84 20.46,5.84 10.6,0 13.81,-11.54 17.54,-18.99 5.16,-10.33 10.23,-16.6 10.23,-29.23 0,-10.13 -6.85,-19.85 -14.61,-21.93l8.74 -19.01c33.31,2.84 27.96,4.06 55.56,-51.14 10.77,-21.53 27.77,-46.45 27.77,-71.61 0,-41.3 -57.18,-67.22 -81.84,-67.22 -40.63,0 -49.15,26.9 -59.92,48.23 -6.09,12.08 -11.77,23.53 -18.03,36.04 -3.26,6.54 -17.05,31.34 -17.05,37.03z"/>
  <path class="fil0" d="M384.85 467.18l0 143.22c0,2.72 1.68,4.55 3.83,5.36 1.08,0.41 2.26,0.62 3.4,0.62 1.13,0 2.28,-0.21 3.31,-0.61 2.3,-0.92 4.08,-3.15 4.08,-6.84l0 -140.29c0,-3.53 -1.92,-5.76 -4.33,-6.7 -1.09,-0.42 -2.27,-0.65 -3.39,-0.65 -1.15,-0.01 -2.31,0.19 -3.34,0.57 -2,0.76 -3.56,2.54 -3.56,5.32z"/>
  <path class="fil0" d="M303.01 468.64l0 138.83c0,4.84 1.74,7.49 3.98,8.45 0.9,0.39 1.97,0.58 3.04,0.58 1.09,-0.01 2.26,-0.25 3.38,-0.69 2.36,-0.93 4.23,-2.86 4.23,-5.41l0 -143.22c0,-2.78 -1.56,-4.56 -3.56,-5.32 -1.04,-0.39 -2.19,-0.58 -3.32,-0.57 -1.15,0 -2.33,0.23 -3.42,0.65 -2.4,0.94 -4.33,3.17 -4.33,6.7z"/>
  <path class="fil0" d="M221.17 540.24l-0.22 12.68c-0.43,20.99 -1.14,55.98 1.99,60.89 0.5,0.81 2.09,1.76 4.15,2.34 1.37,0.39 2.84,0.52 4.11,0.21 1.05,-0.27 2.11,-0.93 3,-2.12 1.82,-2.47 3.05,-6.89 3.05,-14.07l0.18 -10.6c0.35,-18.27 0.92,-49 -2.15,-54.64 -0.87,-1.6 -2.19,-2.57 -3.64,-2.97 -1.31,-0.37 -2.75,-0.34 -4.13,0.04 -1.49,0.42 -2.88,1.19 -3.97,2.26 -1.42,1.4 -2.37,3.44 -2.37,5.98z"/>
  <path class="fil0" d="M139.32 546.09l-0.17 10.22c-0.32,18.56 -0.89,51.47 1.95,56.68 0.76,1.38 2.47,2.5 4.49,3.06 1.4,0.39 2.92,0.48 4.32,0.17 1.22,-0.26 2.33,-0.83 3.14,-1.73 1.42,-1.59 2.36,-4.31 2.36,-8.48l0 -65.77c0,-2.27 -0.81,-4.18 -2.05,-5.57 -1.08,-1.21 -2.49,-2.11 -3.98,-2.59 -1.41,-0.45 -2.91,-0.54 -4.26,-0.18 -1.36,0.34 -2.64,1.21 -3.59,2.65 -0.49,0.74 -0.97,2.28 -1.38,4.11 -0.55,2.37 -0.83,5.07 -0.83,7.43z"/>
  <path class="fil0" d="M547.07 540.24l0 68.69c0,3.06 2.15,5.7 4.9,6.97 1.03,0.48 2.14,0.76 3.23,0.76 0.92,0.03 1.87,-0.19 2.71,-0.67 2.95,-1.65 5.25,-6.43 5.25,-15.82l0.18 -10.6c0.35,-18.27 0.91,-49 -2.16,-54.64 -0.87,-1.6 -2.19,-2.57 -3.63,-2.97 -1.31,-0.37 -2.76,-0.34 -4.14,0.04 -1.49,0.42 -2.88,1.19 -3.96,2.26 -1.42,1.4 -2.38,3.44 -2.38,5.98z"/>
  <path class="fil0" d="M465.23 546.09l0 57c0,7.1 2.38,11.25 5.39,12.83 0.95,0.5 1.98,0.76 2.97,0.76 1.01,0.01 2.05,-0.24 3,-0.71 2.66,-1.32 4.73,-4.67 4.73,-9.96l0 -65.77c0,-3.65 -2.27,-6.54 -5.14,-7.88 -1.05,-0.49 -2.19,-0.77 -3.27,-0.78 -0.94,-0.01 -1.9,0.2 -2.75,0.64 -2.77,1.51 -4.93,5.75 -4.93,13.87z"/>
 </g>
</svg>
