<?xml version="1.0" encoding="UTF-8"?>
<!DOCTYPE svg PUBLIC "-//W3C//DTD SVG 1.1//EN" "http://www.w3.org/Graphics/SVG/1.1/DTD/svg11.dtd">
<!-- Creator: CorelDRAW -->
<svg xmlns="http://www.w3.org/2000/svg" xml:space="preserve" width="8.6056mm" height="8.2146mm" version="1.1" style="shape-rendering:geometricPrecision; text-rendering:geometricPrecision; image-rendering:optimizeQuality; fill-rule:evenodd; clip-rule:evenodd"
viewBox="0 0 860.56 821.46"
 xmlns:xlink="http://www.w3.org/1999/xlink"
 xmlns:xodm="http://www.corel.com/coreldraw/odm/2003">
 <defs>
  <style type="text/css">
   <![CDATA[
    .fil0 {fill:#5CA2D2}
   ]]>
  </style>
 </defs>
 <g id="Layer_x0020_1">
  <metadata id="CorelCorpID_0Corel-Layer"/>
  <path class="fil0" d="M143.56 529.3c0,-19.52 0.95,-35.39 3.37,-50.81 2.42,-15.4 6.3,-30.3 12.18,-47.88 5.93,-17.71 13.17,-32.83 21.68,-47.08 8.5,-14.22 18.26,-27.57 29.24,-41.8 10.54,-13.64 26.86,-28.64 44.65,-42.06 18.52,-13.97 38.67,-26.25 55.58,-33.54 14.88,-6.42 27.19,-10.8 39.84,-14.2 12.62,-3.39 25.56,-5.79 41.69,-8.25 4.16,-0.65 61.01,-0.87 65.01,-0.24 32.7,4.76 62.26,12.88 89.47,25.64 27.24,12.76 52.1,30.16 75.37,53.43 8.41,8.41 16.99,17.5 24.97,27.19 7.97,9.7 15.31,19.96 21.22,30.71 18.31,33.28 30.87,68.35 36.21,104.56 5.02,34.1 3.63,69.21 -5.39,104.77 -1.31,5.15 -2.45,9.4 -3.69,13.62 -1.2,4.12 -2.47,8.1 -4.02,12.75 -3.74,11.18 -8.84,22.75 -14.61,33.95 -6.57,12.76 -14.03,25.09 -21.32,35.86 -5.12,7.54 -10.12,13.77 -15.41,19.68 -5.35,5.99 -10.88,11.53 -17.11,17.76 -22.78,22.78 -47.24,40.42 -74.14,53.47 -26.89,13.05 -56.19,21.52 -88.67,25.95 -17.69,2.42 -32.94,3.19 -48.1,2.42 -15.17,-0.76 -30.23,-3.05 -47.54,-6.75 -24.38,-5.22 -44.27,-12.42 -62.77,-21.83 -18.48,-9.39 -35.56,-20.97 -54.34,-34.97 -10.19,-7.59 -22.86,-20.38 -34.58,-34.03 -12.41,-14.46 -23.81,-29.95 -30.1,-41.32 -11.67,-21.05 -21.34,-42.52 -28.09,-65.1 -6.76,-22.62 -10.6,-46.35 -10.6,-71.9zm-22.28 -6.79c0,15.45 1.51,31.83 4.16,47.85 2.78,16.77 6.81,33.17 11.65,47.7 3.52,10.55 6.44,18.66 9.83,26.57 3.38,7.88 7.23,15.55 12.63,25.24 15.34,27.55 34.23,51.91 56.41,72.98 22.38,21.25 48.09,39.16 76.88,53.62 44.71,22.48 93.78,31.97 142.49,29.86 50.42,-2.18 100.46,-16.8 144.9,-42.33 3.07,-1.76 6.67,-4.05 10.31,-6.47 4.17,-2.79 8.41,-5.78 11.92,-8.37 22.96,-16.94 41.5,-34.39 57.52,-54.23 16.02,-19.86 29.53,-42.13 42.41,-68.68 12.99,-26.81 20.96,-58.4 24.14,-90.55 3.33,-33.69 1.39,-67.97 -5.52,-97.97 -2.47,-10.71 -5.1,-20.08 -8.08,-29.09 -2.99,-9.02 -6.32,-17.67 -10.18,-26.95 -12.87,-30.9 -25.92,-47.39 -42.29,-68.07 -2.98,-3.77 -6.08,-7.68 -8.67,-11.01 -15.67,-20.18 -39.32,-39.58 -65.57,-55.72 -27.85,-17.11 -58.61,-30.54 -85.9,-37.34 -23.75,-5.92 -50.26,-9.17 -76.67,-9.22 -25.06,-0.06 -50.05,2.76 -72.51,8.88 -18.93,5.16 -36.41,11.3 -53.12,18.95 -16.68,7.63 -32.62,16.79 -48.49,27.99 -11.25,7.95 -21.44,16.37 -31.04,25.4 -9.61,9.04 -18.63,18.7 -27.55,29.11 -21.33,24.94 -38.65,56.07 -50.68,89.2 -12.22,33.62 -18.98,69.3 -18.98,102.65z"/>
  <path class="fil0" d="M195.4 525.34c0,-29.11 4.76,-54.63 13.45,-78.14 8.69,-23.49 21.3,-44.97 37,-66.04 18,-24.16 45.48,-45.94 75.93,-61.58 29.91,-15.36 62.73,-24.82 92.32,-24.82 22.27,0 40.33,0.7 57.85,3.89 17.52,3.2 34.41,8.9 54.25,18.9 9.12,4.6 19.78,10.45 29.68,16.94 7.78,5.1 15.11,10.62 20.9,16.26 12.85,12.52 24.01,23.57 33.82,36 9.83,12.48 18.29,26.34 25.71,44.45 2.79,6.8 5.33,13.09 7.67,19.85 2.35,6.75 4.48,13.9 6.42,22.37 5.81,25.32 7.31,49.68 4.98,73.28 -2.34,23.6 -8.52,46.43 -18.09,68.7 -5.21,12.12 -9.38,20.35 -14.07,28.01 -4.67,7.63 -9.86,14.66 -17.12,24.41 -2.66,3.56 -4.96,5.87 -7.24,8.16 -2.05,2.07 -4.1,4.12 -6.37,7.1 -1.82,2.38 -26.64,24.38 -29.88,26.75 -5.81,4.2 -11.19,7.72 -16.83,11.07 -5.61,3.32 -11.54,6.49 -18.46,9.97 -38.16,19.18 -79.14,26.42 -119.31,22.97 -41.37,-3.55 -81.91,-18.44 -117.65,-43.3 -6.43,-4.47 -14.8,-11.59 -22.72,-19.1 -8.06,-7.63 -15.67,-15.64 -20.33,-21.64 -15.87,-20.42 -28.84,-42.46 -37.85,-66.43 -9.02,-23.98 -14.06,-49.89 -14.06,-78.03zm-20.59 -15.27c0,25.35 0.61,45.21 4.07,64.36 3.46,19.14 9.78,37.69 21.2,60.46 13.38,26.67 30.16,49.54 49.36,68.62 39.26,39.04 88.65,62.26 139.72,69.95 51.07,7.69 103.83,-0.15 149.83,-23.22 22.22,-11.14 42.88,-25.85 61,-44.09 11.89,-11.95 20.89,-21.84 28.82,-32.54 7.93,-10.71 14.81,-22.27 22.49,-37.59 17.35,-34.66 26.16,-72.99 26.26,-111.3 0.09,-38.1 -8.42,-76.18 -25.7,-110.63 -26.88,-53.6 -67.17,-91.82 -113.22,-114.88 -35.41,-17.73 -74.24,-26.51 -113.02,-26.44 -38.78,0.07 -77.52,9 -112.74,26.66 -45.94,23.04 -85.91,60.96 -112.23,113.53 -6.69,13.35 -13.97,31.28 -19.1,50.56 -4.04,15.2 -6.74,31.25 -6.74,46.55z"/>
  <path class="fil0" d="M307.35 633.9l0 -159.45c0,-11.46 3.84,-18.49 8.65,-21.58 1.91,-1.22 3.99,-1.84 6.07,-1.88 2.07,-0.03 4.12,0.51 5.98,1.59 4.47,2.61 7.9,8.38 7.9,16.78l0 171.32c0,7.11 -3.76,12.87 -8.52,15.55 -1.88,1.05 -3.93,1.64 -5.98,1.66 -2.08,0.02 -4.16,-0.55 -6.07,-1.8 -4.52,-2.98 -8.03,-9.9 -8.03,-22.19zm140.56 -171.32c0,5.11 2.83,7.68 6.99,8.96 4.6,1.42 10.83,1.4 16.84,1.36 20.49,0.03 56.04,-2.09 74.71,0.11 18.1,2.03 20.79,16.17 19.18,30.54 -0.83,7.38 -2.8,14.76 -4.32,20.47 -0.71,2.64 -1.32,4.93 -1.64,6.56l-14.4 70.4c-0.4,1.99 -0.68,3.54 -0.95,5.07 -2.07,11.42 -3.92,21.64 -13.54,26.49 -11.09,5.59 -95.08,4.14 -143,3.32 -12.17,-0.21 -21.97,-0.38 -27.96,-0.38l-1.46 0 -0.12 -1.45c-0.22,-2.71 -0.47,-4.41 -0.64,-5.54l-0.1 -0.68c-2.01,-14.49 -1.46,-83.17 -1.13,-125.58 0.09,-11.51 0.17,-21.04 0.17,-27.78l0 -1.58 1.58 0c31.19,0 34.2,-7.76 48.52,-44.79 2.19,-5.66 4.64,-11.99 7.43,-18.93l1.88 -4.79c4.52,-11.65 11.77,-30.33 18.5,-34.12 2.41,-1.35 4.95,-1.99 7.48,-1.99 3.51,0 7.01,1.23 10.17,3.46 3.09,2.17 5.87,5.3 8.03,9.15 2.91,5.18 4.74,11.69 4.74,18.96 0,9.88 -4.01,21.74 -6.95,30.43l-0.56 1.66c-0.46,1.38 -1.06,3.08 -1.77,5.07 -2.94,8.32 -7.68,21.73 -7.68,25.6zm-74.52 -11.99l-19.61 0 -0.93 -1.76c-3.01,-5.71 -3.96,-7.5 -9.64,-11.73 -6.58,-4.9 -14.1,-7.22 -21.45,-7.22 -5.33,0 -10.57,1.22 -15.31,3.55 -4.73,2.33 -8.97,5.78 -12.28,10.23 -4.57,6.14 -7.41,14.24 -7.41,24.01l0 173.01c0,12.04 4.45,21.96 11.19,28.82 4.45,4.53 9.92,7.73 15.77,9.3 5.82,1.56 12.02,1.51 17.96,-0.44 8.21,-2.69 15.98,-9.03 21.65,-19.75l0.45 -0.85 99.33 0c5.78,0 12.25,0.15 18.83,0.3 27.17,0.61 56.29,1.26 71.91,-8.55 16.76,-10.52 20.01,-28.9 23.77,-50.19 1.09,-6.12 2.22,-12.49 3.72,-19.02 2.42,-10.51 6.4,-27.88 9.78,-45.08 3.35,-17.13 6.11,-34.08 6.11,-43.8 0,-8.79 -3.79,-17.6 -9.95,-24.73 -6.17,-7.14 -14.7,-12.61 -24.18,-14.7 -11.33,-2.5 -38.01,-2.01 -58.84,-1.64 -6.78,0.13 -12.96,0.24 -17.4,0.24l-1.72 0 0.14 -1.71c0.43,-5.08 2.71,-12 4.94,-18.76 1.41,-4.28 2.81,-8.5 3.64,-11.96 1.55,-6.43 2.24,-12.52 2.24,-18.22 0,-14.93 -4.79,-27.15 -11.41,-36.07 -6.58,-8.85 -14.93,-14.45 -22.15,-16.18 -1.56,-0.38 -3.08,-0.57 -4.52,-0.57 -30.93,0 -35.47,10.64 -45.56,34.3 -1.2,2.83 -2.48,5.84 -3.84,8.9l-24.17 60.27 -1.06 0z"/>
  <path class="fil0" d="M594.02 170.33c1.64,-2.46 3.29,-4.43 5.17,-6.67l2.54 -3.07c1.18,-1.46 2.3,-2.54 3.35,-3.56 1.7,-1.63 3.14,-3.02 3.57,-5.71 0.78,-4.83 -1.78,-8.98 -4.43,-13.28 -2.27,-3.67 -4.59,-7.43 -5.68,-12.12l-1.44 -6.18 6.18 1.44c2.96,0.69 6.16,2.17 9.55,3.75 5.69,2.66 12.05,5.61 16.21,4.16 2.11,-0.74 5.65,-4.61 9.19,-8.46 3.22,-3.52 6.44,-7.04 9.45,-9.06l6.15 -4.12 0 7.4c0,9 -0.85,15.02 -1.45,19.29 -0.47,3.36 -0.75,5.35 -0.34,6.25 0.76,1.56 4.39,3.28 13.22,7.45 8.67,4.14 17.12,8.61 25.68,13l-15.54 0.35c-27.97,0.62 -28.59,10.01 -29.64,25.98 -0.13,2.08 -0.28,4.26 -0.43,6.03l-0.77 9.31 -6.14 -7.06c-3.21,-3.68 -5.55,-8.15 -7.7,-12.24 -2.06,-3.91 -3.91,-7.43 -5.64,-8.59 -4.02,-2.7 -9.44,-1.42 -15.19,-0.07 -4.02,0.94 -8.17,1.92 -12.6,1.92l-7.39 0 4.12 -6.14zm27.02 -60.41c-3.94,-1.9 -8.09,-3.6 -12.28,-5.31 -4.54,-1.86 -9.14,-3.74 -13.76,-5.98l-3.65 -1.8c-7.26,-3.62 -17.18,-8.56 -22.89,-8.56 -1.19,0 -2.32,0.29 -3.23,0.85 -0.75,0.47 -1.4,1.14 -1.86,2.02 -0.51,0.96 -0.81,2.2 -0.81,3.73 0,3.19 1.28,7.35 4.47,12.5 7.9,11.95 15.7,27.18 23.03,39.86l-1.37 2.04c-3.98,5.94 -10.54,12.84 -17.13,19.76 -9.71,10.21 -19.51,20.49 -19.51,25.54 0,5.71 3.56,7.57 8.9,7.57 6.6,0 15.51,-2.28 24.6,-4.62 10.04,-2.57 20.29,-5.21 28.71,-5.21l2.37 0 1.12 2.12c2.6,4.93 5.22,9.44 7.87,14.02 2.17,3.75 4.37,7.55 6.78,11.96 1.2,2.2 2.33,4.14 3.4,5.98 1.27,2.18 2.46,4.22 3.96,7.1 4.23,8.1 4.99,8.09 11.14,8.04l2.37 -0.03c4.75,0 5.52,-10.04 6.15,-18.41 0.18,-2.32 0.35,-4.54 0.59,-6.46l2.71 -26.05c0.22,-2.05 0.13,-3.09 0.08,-3.7 -0.08,-0.97 -0.13,-1.54 0.25,-2.6 0.53,-1.45 1.14,-1.89 2.63,-2.96l1.29 -0.96c1.82,-1.38 15.28,-4.01 24.96,-5.9 4.02,-0.79 7.37,-1.44 8.62,-1.73 1.34,-0.3 2.95,-0.61 4.68,-0.93 7.79,-1.46 18.72,-3.51 18.72,-9.46 0,-7.76 -8.69,-11.11 -16.46,-14.11 -1.53,-0.59 -3.05,-1.18 -4.13,-1.62 -2.13,-0.88 -5.25,-2.38 -8.7,-4.03 -7.67,-3.67 -17.11,-8.18 -21.36,-8.53l-3.63 -0.3 0 -3.64c0,-8.3 0.93,-15.48 1.85,-22.69 0.62,-4.79 1.24,-9.6 1.56,-14.86 0.07,-1.16 0.32,-2.7 0.6,-4.5 0.45,-2.88 1.03,-6.54 1.03,-10.1 0,-5.16 -1.48,-10.05 -7.87,-10.05 -6.51,0 -16.01,11.79 -23.93,21.6 -2.31,2.87 -4.5,5.58 -6.64,8 -1.71,1.94 -3.19,3.35 -4.6,4.69 -2.02,1.92 -3.88,3.7 -5.66,6.36l-1.9 2.83 -3.07 -1.47z"/>
  <path class="fil0" d="M-6.01 259.94l0 2.3c0.2,1.33 0.76,2.75 1.76,4.23 1.08,1.58 2.68,3.26 4.91,4.99 10.7,8.03 26.1,24.37 36.68,34.24l-1.41 2.66c-1.71,3.24 -9.57,20.07 -15.37,33.45 -3.5,8.06 -6.22,14.67 -6.22,15.6 0,2.77 0.94,4.56 2.37,5.67 1.97,1.54 4.96,2.13 7.97,2.24l51.42 -28.38 2.02 3.01c2.5,3.74 3.82,4.7 6.26,6.49 0.94,0.69 2.03,1.49 3.35,2.54 2.09,1.66 5.26,4.73 8.91,8.27 8.12,7.86 18.85,18.26 22.31,18.26 7.05,0 9,-3.78 9,-8.56 0,-4.39 -1.26,-9.63 -2.38,-14.27l-0.27 -1.14c-0.74,-3.08 -1.55,-7.31 -2.44,-11.95 -1.82,-9.54 -4,-20.89 -5.77,-24.58l-2.12 -4.43 4.78 -1.12c3.94,-0.91 13.31,-6.48 20.39,-10.69 2.32,-1.38 4.39,-2.61 6.25,-3.65l0.59 -0.33c4.5,-2.51 7.64,-4.27 13.46,-7.61 3.56,-2.03 5.44,-3.31 6.23,-4.75 0.79,-1.45 0.91,-3.87 0.91,-8.14 0,-6.18 -16.69,-6.82 -31.81,-7.4 -13.29,-0.51 -25.58,-0.98 -29.39,-6.46 -2.47,-3.55 -3.66,-11.68 -5.05,-21.09 -2.33,-15.76 -5.28,-35.73 -12.91,-35.73 -7.51,0 -10.28,7.27 -12.99,14.39 -0.82,2.13 -1.63,4.26 -2.67,6.5l-2.58 5.41c-3.87,8.06 -8.43,17.53 -10.15,24.92l-0.71 3.06 -3.13 0c-7.35,0 -20.35,-1.5 -32.08,-2.86 -11,-1.28 -20.85,-2.42 -22.79,-2.06 -1.81,0.34 -3.64,1.32 -5.05,2.75 -1.16,1.16 -2.01,2.61 -2.28,4.22zm102.41 73.6c-2.45,-1.64 -4.42,-3.28 -6.65,-5.15l-3.08 -2.55c-1.66,-1.34 -2.84,-2.54 -3.89,-3.61 -1.61,-1.65 -2.8,-2.86 -5.45,-3.33 -5.48,-0.97 -9.53,1.69 -13.68,4.42 -3.49,2.3 -7.03,4.63 -11.66,5.71l-6.17 1.43 1.43 -6.17c0.73,-3.12 2.26,-6.5 3.85,-10.03 2.59,-5.72 5.4,-11.92 4.06,-15.74 -0.74,-2.12 -4.6,-5.65 -8.45,-9.18 -3.52,-3.22 -7.04,-6.44 -9.06,-9.46l-4.12 -6.15 7.39 0c8.43,0 14.25,0.81 18.49,1.39 3.58,0.5 5.76,0.79 6.86,0.28 2.02,-0.99 4.13,-5.5 9.44,-16.91 3.17,-6.74 6.83,-12.93 10.48,-19.49l1.07 12.92c0.32,3.83 1.4,10.53 2.91,16.25 1.01,3.83 2.15,7.08 3.21,8.3 3.15,3.57 8.79,3.97 14.93,4.4 3.73,0.26 7.61,0.54 11.53,1.45l7.53 1.75 -5.84 5.08c-3.7,3.21 -8.16,5.56 -12.26,7.7 -3.9,2.05 -7.41,3.89 -8.57,5.63 -2.7,4.02 -1.43,9.44 -0.08,15.19 0.95,4.02 3.28,7.89 3.28,12.31l2.75 9.99 -10.25 -6.43z"/>
  <path class="fil0" d="M457.18 130.53c-3.5,-0.93 -7.29,-3.22 -11.21,-5.58 -5.07,-3.04 -10.4,-6.25 -13.36,-5.58 -2.85,0.66 -8.47,5.9 -13.33,10.44 -3.08,2.88 -5.89,5.5 -8.08,6.97l-8.3 5.56 2.87 -12.34c3.4,-14.54 4.91,-21.04 3.94,-24.16 -0.57,-1.82 -2.99,-3.15 -7.35,-5.56 -2.25,-1.23 -4.93,-2.71 -8.32,-4.81 -2.72,-1.69 -4.32,-3.08 -6.07,-4.6l-6.04 -5.25 7.53 -1.76c2.85,-0.66 6.32,-0.99 9.91,-1.33 6.36,-0.6 13.2,-1.24 15.94,-3.9 2.22,-2.14 4.4,-12.57 5.86,-19.57 0.38,-1.85 0.73,-3.5 0.96,-4.48l2.31 -9.94c3.74,6.7 7.45,13.42 11.21,20.1l0.07 0.17c5.19,13.12 7.42,12.82 15.67,11.69 4.26,-0.58 9.72,-1.33 16.99,-1.33l7.39 0 -4.12 6.15c-4.17,6.23 -8.23,9.08 -11.64,11.48 -2.77,1.94 -4.98,3.49 -5.93,6.81 -1.22,4.29 1.49,10.25 4.04,15.86 1.6,3.52 3.15,6.93 3.93,10.25l1.49 6.41 -6.36 -1.7zm-66.27 -13.99c0,6.14 -2.21,14.68 -4.55,23.69 -2.46,9.51 -5.07,19.57 -5.07,27.07 0,5.75 1.81,9.75 7.36,9.75 4.72,0 11.01,-6.5 16.05,-11.7 2.08,-2.16 3.99,-4.13 5.67,-5.53 6.28,-5.26 10.59,-9.25 13.76,-12.18 4.76,-4.42 7.23,-6.72 10.25,-7.49 3.84,-1 6.28,0.56 11.36,3.81 2.16,1.38 4.95,3.16 8.76,5.28 1.29,0.72 3.15,1.8 5.43,3.13 8.72,5.07 23.79,13.82 26.03,14.02l0.67 0.02c1.99,0 4.01,-0.78 5.58,-2.08 1.5,-1.24 2.57,-2.93 2.74,-4.81l0.01 -0.57c0,-4.76 -6.19,-17.73 -11.94,-29.8 -4.54,-9.52 -8.82,-18.52 -10.01,-23.59l-0.61 -2.65 2.27 -1.52c4.89,-3.27 8.99,-7.24 13.18,-11.29 2.87,-2.78 5.8,-5.61 9.03,-8.31 0.88,-0.74 2.15,-1.73 3.56,-2.82 5.95,-4.63 14.87,-11.57 14.87,-16.71 0,-5.02 -2.2,-7.23 -5.43,-8.01 -4.35,-1.06 -10.62,-0.28 -16.72,0.53 -3.89,0.53 -8.54,0.95 -13.37,1.39 -8.34,0.75 -17.25,1.56 -24.09,3.15l-2.95 0.69 -1.43 -2.7c-2.29,-4.32 -5.02,-10.57 -7.96,-17.33 -6.92,-15.88 -15.19,-34.83 -19.08,-34.83 -4.63,0 -7.11,0.25 -8.34,1.68 -1.66,1.94 -2.73,6.27 -4.37,14.21 -1.73,8.45 -2.78,15.15 -3.62,20.49 -1.72,10.99 -2.63,16.79 -6.81,20.73 -4.61,4.34 -11.61,4.87 -26.41,5.97 -4.52,0.34 -9.78,0.74 -14.72,1.18l-3.79 0.32c-7.52,0.58 -12.57,0.98 -14.81,6.16 -3.8,8.78 14.21,17.51 28.74,24.55 11.21,5.43 20.76,10.05 20.76,16.1z"/>
  <path class="fil0" d="M803.1 301.43c0,4.91 1.65,6.99 4.37,10.44 2.36,2.98 5.35,6.76 8.74,13.17l4.05 7.65 -8.44 -1.97c-5.77,-1.34 -10.29,-3.01 -14.08,-4.41 -8.07,-2.98 -11.96,-4.41 -18.71,5 -0.81,1.13 -1.69,2.48 -2.54,3.79 -2.51,3.9 -4.81,7.46 -9.07,10.32l-6.14 4.11 0.02 -13.87c0.03,-13.04 0.04,-18.5 -1.28,-20.51 -0.63,-0.94 -2.56,-1.5 -5.87,-2.46 -3.8,-1.09 -8.99,-2.59 -16.12,-5.87l-2.49 -1.14c-0.45,-0.24 -0.61,-0.38 -0.9,-0.64l-7.81 -5.43 8.66 -2.02c26.53,-6.18 26.49,-7.54 26,-24.11 -0.1,-3.4 -0.22,-7.29 -0.22,-11.06l0 -7.39 6.15 4.12c2.98,1.99 6.06,6.06 9.29,10.33 4.03,5.32 8.36,11.04 10.56,11.04 3.36,0 7.15,-1.44 11.1,-2.95 4.37,-1.66 8.92,-3.4 14.02,-3.82l8.16 -0.68 -4.56 6.81 -2.21 3.37c-1.63,2.52 -3.23,5 -5.44,7.93 -0.81,1.08 -1.46,1.86 -2.08,2.58 -1.79,2.13 -3.16,3.75 -3.16,7.67zm-60.42 -23.38l-30.75 9.96c-2.05,0.68 -4.21,1.31 -6.37,1.94 -8.85,2.6 -17.8,5.22 -17.8,11.48 0,9.04 12.98,12.4 28,16.28 9.04,2.34 18.74,4.85 27.41,9.01l2.26 1.08 0 14.92c0.02,9.44 0.04,18.89 -0.04,28.32 -0.05,5.07 0.09,11.43 1.85,15.65 1.23,2.94 3.7,4.64 8.54,3.01 3.88,-1.3 5.67,-3.97 8.01,-7.48 3.81,-5.69 13.77,-20.85 17.61,-24.7 1.52,-2.1 3,-4 4.44,-5.84 1.76,-2.24 3.45,-4.4 4.95,-6.64l1.52 -2.27 2.64 0.62c6.84,1.59 13.17,3.85 19.63,6.15 4.98,1.78 10.05,3.59 15.19,5.05 1.68,0.48 3.56,1.11 5.5,1.76 4.41,1.49 9.17,3.08 12.87,3.08 3.67,0 6.42,-2.35 6.42,-10.5 0,-1.48 -9.3,-14.12 -17.77,-25.64 -6.25,-8.49 -12.09,-16.42 -13.99,-20.02l-1.1 -2.07 1.31 -1.96c2.25,-3.36 5.62,-7.7 9.36,-12.54 9.73,-12.57 22.19,-28.67 22.19,-36.15 0,-0.78 -0.94,-2.02 -2.15,-3.23 -1.7,-1.7 -3.48,-3 -4.07,-3 -3.73,0 -18.16,4.88 -31.55,9.41 -9.64,3.25 -18.76,6.33 -23.53,7.45l-3.72 0.86 -0.99 -3.69c-0.68,-2.54 -2.76,-5.31 -4.84,-8.09 -0.83,-1.1 -1.66,-2.2 -2.38,-3.24 -2.13,-3.05 -3.81,-5.24 -5.54,-7.48 -1.26,-1.64 -2.55,-3.32 -3.83,-5.06 -0.82,-1.11 -1.9,-2.75 -3.11,-4.59 -4.33,-6.58 -10.6,-16.1 -15.5,-16.1 -7.15,0 -8.24,7.66 -8.24,13.64 0,2.07 0.1,3.8 0.18,5.18 0.06,0.98 0.11,1.8 0.12,2.65 0.04,8.81 0.03,17.64 0.02,26.46l-0.02 15.44 -2.73 0.89z"/>
  <path class="fil0" d="M205.96 111.57c2.45,1.65 4.68,3.28 6.83,4.87 5.78,4.24 11.04,8.1 14.71,8.09 4.25,0 8.57,-3.35 12.72,-6.57 3.79,-2.94 7.47,-5.79 11.71,-6.93l8.28 -2.21 -3.71 7.72c-11.78,24.57 -4.48,29.01 3.39,33.8 4.18,2.54 8.49,5.16 11.6,9.81l4.12 6.14 -7.39 0c-3.68,0 -7.48,-0.12 -10.83,-0.22 -13.26,-0.42 -17.52,-0.56 -21.25,12.36l-3.09 10.75 -0.92 2.19c-0.15,0.72 -0.49,1.35 -0.95,1.86 -1.38,2.27 -2.41,3.62 -3.22,4.23l-2.28 3.27 -1.71 -7.33c-0.19,-0.38 -0.31,-0.83 -0.31,-1.35 -0.71,-3.02 -2.73,-10.27 -4.76,-16.14 -1.25,-3.59 -2.42,-6.55 -3.1,-7.32 -2.83,-3.23 -10.98,-2.9 -19.99,-2.55 -3.1,0.13 -6.29,0.25 -9.01,0.25l-11.09 0 29.58 -24.11c1.74,-3.56 -0.25,-9.18 -2.22,-14.76 -1.46,-4.12 -2.91,-8.23 -3.25,-12.25l-0.67 -8.16 6.81 4.56zm-35.56 -32.35c0,3.38 4.11,14.95 6.56,21.84 0.56,1.6 1.03,2.92 1.49,4.27 0.54,1.67 1.33,3.83 2.17,6.18 2.76,7.62 6.21,17.19 6.72,23.37l0.28 3.28 -3.21 0.85c-3.81,1.02 -6.65,3.3 -9.64,5.7 -1.49,1.19 -3.02,2.42 -4.74,3.59 -3.36,2.29 -13.12,9.06 -20.48,14.77 -4.11,3.19 -7.39,5.94 -8.09,7.07 -2.63,4.3 -0.14,7.55 2.32,10.76l0.94 1.24 58.78 0 0.72 3.05c1.32,5.68 3.35,11.48 5.34,17.17 1.61,4.58 3.19,9.1 4.43,13.57l1.13 4.28c2.54,9.71 5.12,19.6 12.39,19.6 7.7,0 9.79,-7.65 11.95,-15.56 0.61,-2.21 1.22,-4.45 1.92,-6.54 0.58,-1.77 1.4,-4.04 2.3,-6.53 3,-8.33 6.9,-19.16 7.03,-25.17l0.09 -3.87 56.43 0c3.94,0 5.87,-1.01 6.73,-2.56 1.1,-1.99 1.19,-5.26 1.19,-8.76 0,-0.78 -5.12,-5.03 -11.72,-10.17 -12.74,-9.9 -29.96,-21.33 -31.13,-21.64l-3 -0.8 0.07 -3.09c0.18,-7.99 4.05,-18.28 7.93,-28.58 3.72,-9.9 7.46,-19.82 7.46,-26.54 0,-4.23 -2.07,-7 -8.06,-7 -4.97,0 -13.94,7.19 -19.66,11.77 -1.22,0.99 -2.31,1.86 -3.42,2.69 -4.09,3.08 -8.27,6.16 -12.39,9.1 -3.8,2.72 -7.67,5.41 -11.53,7.99l-2.32 1.55 -24.52 -18.4c-1.88,-1.41 -4.12,-3.16 -6.15,-4.75 -8.19,-6.41 -12.72,-9.95 -20.09,-9.95 -0.78,0 -2.03,0.94 -3.23,2.15 -1.7,1.71 -2.99,3.48 -2.99,4.07z"/>
 </g>
</svg>
